<svg id="Layer_1" data-name="Layer 1" xmlns="http://www.w3.org/2000/svg" viewBox="0 0 211.8 211.8"><defs><style>.cls-1{fill:none;}.cls-2{fill:#3d4552;}</style></defs><circle class="cls-1" cx="105.9" cy="105.9" r="105.9"/><path class="cls-2" d="M70,24.71c.58,3,2.71,4.65,5.15,4.18a4.57,4.57,0,0,0,3.22-2.35l.44.18a4.55,4.55,0,0,1-3.7,3.18c-3.12.6-5.66-1.33-6.34-4.86-.71-3.7,1.47-6.37,4.26-6.9a4.05,4.05,0,0,1,4.46,1.95.71.71,0,0,1-.62.77.85.85,0,0,1-1-.53l-1-1.75,1,.64a4.5,4.5,0,0,0-2.74-.37C70.85,19.3,69.44,21.59,70,24.71Z" transform="translate(0 -0.31)"/><path class="cls-2" d="M82.49,23.46l-.09-1.15c-.12-1.53-.24-2.77-.37-3.88l-2.11.08,0-.63,2.86-1,.3.16.38,3.09.25,3.22c.12,1.48.33,3.94.46,5l-1.32.1C82.77,27.41,82.6,24.94,82.49,23.46ZM80.79,28l2.47-.48.32,0,2.61.08,0,.62-5.4.42Zm2-7.84.88-.06-.39.27c.54-2.18,2-3.76,3.64-3.88a1.89,1.89,0,0,1,1.68.58c.06.75-.23,1.14-.9,1.19a2,2,0,0,1-1.34-.52l-.59-.42L87,17.22c-1.68.45-2.78,1.75-3.49,4.1l-.57,0Z" transform="translate(0 -0.31)"/><path class="cls-2" d="M99.85,21.12a5.44,5.44,0,0,1-.19,1.35l-8.85-.29,0-.71,6.94.24c.67,0,.88-.34.9-1a3.21,3.21,0,0,0-3.12-3.45c-2.14-.07-4,1.86-4.07,4.85-.11,3.63,1.8,5.31,4.12,5.38A4.62,4.62,0,0,0,99.25,26l.37.35a5,5,0,0,1-4.32,2.12c-2.87-.09-5.24-2.14-5.12-6.11.12-3.66,2.66-5.91,5.45-5.83A4.23,4.23,0,0,1,99.85,21.12Z" transform="translate(0 -0.31)"/><path class="cls-2" d="M106.06,22.91a37.8,37.8,0,0,1,3.94-.39l-.1.6a28.78,28.78,0,0,0-3.73.47c-2.13.45-2.91,1.26-3.07,2.27A2,2,0,0,0,105,28.29c1.13.17,2.09-.25,3.8-1.42l.4-.26,0,.57-.47.36c-1.7,1.32-2.8,1.92-4.36,1.67a2.79,2.79,0,0,1-2.58-3.32C102.06,24.34,103.24,23.41,106.06,22.91Zm2.6,4.32.84-5.36c.39-2.51-.35-3.27-2.12-3.54a4.55,4.55,0,0,0-2.78.43l.85-.55-.78,1.71c-.22.48-.52.68-1,.61a.7.7,0,0,1-.64-.77c.76-1.7,2.5-2.45,4.65-2.11,2.35.36,3.37,1.61,3,4.25l-.82,5.23c-.24,1.55.08,2.07.75,2.18a1.5,1.5,0,0,0,1-.3l.27.46a2.08,2.08,0,0,1-1.81.61C108.92,29.89,108.47,28.85,108.66,27.23Z" transform="translate(0 -0.31)"/><path class="cls-2" d="M117.15,31A3.09,3.09,0,0,0,119,31l.19.53a3.18,3.18,0,0,1-2.51.26c-1.65-.44-2.17-1.58-1.65-3.4.13-.48.27-.92.47-1.66l1.59-6-2.3-.61.18-.69,3,.57-.79.32,1.43-3.63.85.22-1.19,3.93-2.08,7.81C115.81,30.05,116.19,30.78,117.15,31Zm4.58-10-.22.82-3.87-1,.22-.82Z" transform="translate(0 -0.31)"/><path class="cls-2" d="M125.09,33.55l-.21.59L120,32.43l.21-.59,2.45.57.3.1Zm-3.16-.45c.41-1,1.26-3.33,1.75-4.73l.39-1.09c.47-1.34.86-2.47,1.24-3.69l-2-.79.21-.59,3.2.32.21.27-1,2.78-1.12,3.18c-.5,1.4-1.3,3.74-1.62,4.77Zm4.85-15.38a1.1,1.1,0,1,1,.68,1.38A1.05,1.05,0,0,1,126.78,17.72Z" transform="translate(0 -0.31)"/><path class="cls-2" d="M131.61,25.59l-1.91-1.17.28-.6L134.59,26l-.27.59-2.42-.84Zm.8-.63-.87,11.13-.81.21L139,28l.8.37L131,37l-.59-.28.73-12.31Zm6.09,3.85-2-1.21.27-.6,4.05,1.89-.28.6-1.76-.55Z" transform="translate(0 -0.31)"/><path class="cls-2" d="M148.37,38.47a5.23,5.23,0,0,1-.85,1.07L140,34.84l.38-.6,5.89,3.69c.56.35.92.14,1.29-.44a3.21,3.21,0,0,0-1-4.55c-1.82-1.14-4.38-.39-6,2.15-1.93,3.08-1.12,5.49.86,6.72a4.6,4.6,0,0,0,3.9.55l.15.48a4.94,4.94,0,0,1-4.81-.34C138.31,41,137.3,38,139.4,34.65c1.94-3.1,5.27-3.78,7.64-2.3A4.23,4.23,0,0,1,148.37,38.47Z" transform="translate(0 -0.31)"/><path class="cls-2" d="M150.91,48.8l1.62-1.91.61.55-1.4,2.27-.36-.77.39-.42a5,5,0,0,0,1.7,2.71c1.54,1.39,2.93,1.37,3.79.42s.68-1.7-.22-3.4l-.56-1c-.86-1.63-1.1-3.05,0-4.24s3.09-1.36,4.93.3a5.69,5.69,0,0,1,1.76,2.9l-1.56,1.62-.59-.53,1.35-2,.2.64-.31.35a4.42,4.42,0,0,0-1.37-2.49c-1.33-1.2-2.57-1.12-3.36-.24s-.61,1.76.19,3.29l.5,1c1.11,2.12,1.08,3.38.1,4.47-1.14,1.26-3.18,1.45-5.34-.51A7.77,7.77,0,0,1,150.91,48.8Z" transform="translate(0 -0.31)"/><path class="cls-2" d="M161.57,59.08l-.46.43-3.48-3.78.46-.42L160,57l.22.24ZM159,57.21c.83-.7,2.66-2.36,3.75-3.37l.85-.78c1-1,1.92-1.79,2.82-2.68L165,48.74l.46-.42,2.67,1.78.07.34-2.23,2-2.47,2.29c-1.09,1-2.9,2.7-3.66,3.47Zm11.46-11.34a1.1,1.1,0,1,1,0,1.54A1.06,1.06,0,0,1,170.45,45.87Z" transform="translate(0 -0.31)"/><path class="cls-2" d="M165.85,64.41l-.5.37-3-4.14.51-.38,1.7,1.85.19.26Zm-2.36-2.17c.9-.6,2.9-2,4.1-2.92l.93-.69c1.24-.9,2.23-1.66,3.1-2.36l-1.17-1.74.5-.38,2.34,1.91,0,.34-2.06,1.7-3,2.17c-1.2.88-3.18,2.36-4,3Zm5.68,6.21,1.14,2-.51.37-3-4.14.5-.37L169,68.19Zm5.49-3.51-1.91,1.41c-1.24.9-3.18,2.36-4,3l-.79-1.06c.9-.6,2.87-2,4.11-2.93L173.91,64c1.91-1.39,2.1-2.54,1.25-3.69-.65-.89-1.88-1.77-4.43-2.07l-.25-.34.6-.44.44.61-.52-.31c2.55.09,4.37,1,5.31,2.28C177.43,61.59,177.14,63.12,174.66,64.94Z" transform="translate(0 -0.31)"/><path class="cls-2" d="M176.13,70.49c-2.72,1.48-3.62,4-2.43,6.18A4.55,4.55,0,0,0,176.91,79l0,.47a4.55,4.55,0,0,1-4.15-2.56c-1.51-2.79-.44-5.8,2.71-7.51,3.32-1.8,6.52-.53,7.87,2a4.06,4.06,0,0,1-.51,4.84.72.72,0,0,1-.93-.36.85.85,0,0,1,.21-1.11l1.36-1.49-.3,1.19a4.47,4.47,0,0,0-.46-2.72C181.52,69.64,178.91,69,176.13,70.49Z" transform="translate(0 -0.31)"/><path class="cls-2" d="M185.88,88.42a4.82,4.82,0,0,1-1.32.35l-3.21-8.25.66-.26,2.52,6.48c.24.62.65.67,1.29.42a3.22,3.22,0,0,0,2-4.22c-.78-2-3.29-2.93-6.07-1.84-3.38,1.32-4.18,3.73-3.33,5.9a4.64,4.64,0,0,0,2.8,2.77l-.17.48a5,5,0,0,1-3.65-3.14c-1-2.68-.09-5.66,3.62-7.11,3.4-1.33,6.47.12,7.49,2.72A4.22,4.22,0,0,1,185.88,88.42Z" transform="translate(0 -0.31)"/><path class="cls-2" d="M183.59,107.09l-.62.12-1.58-8.36.62-.12,1,3.71.18,1Zm14.25-6.59-.2.38-3.44.55-6.89,1.3c-1.65.31-3.32.65-5,1l-.25-1.3c1.69-.27,3.37-.56,5-.87l9.31-1.76-1.25-3.34.67-.13Z" transform="translate(0 -0.31)"/><path class="cls-2" d="M190.72,113.62a4.37,4.37,0,0,0,2.27,3.51l-.11.28a4.64,4.64,0,0,1,1.51-9,4.63,4.63,0,0,1,5.06,4.44c.17,2.83-2.09,4.91-6,5.16-4.49.28-8.55-2.18-10.55-7.81l.59-.22c2.08,4.91,5.55,7,9.68,6.75,3.72-.24,5.66-1.89,5.53-3.9-.12-1.85-1.67-3.3-4.22-3.14S190.59,111.53,190.72,113.62Z" transform="translate(0 -0.31)"/><path class="cls-2" d="M190.75,125.81a4.35,4.35,0,0,0,1.83,3.75l-.14.27a4.64,4.64,0,0,1,2.58-8.75,4.62,4.62,0,0,1,4.48,5c-.16,2.84-2.67,4.63-6.55,4.4-4.49-.26-8.23-3.19-9.53-9l.62-.15c1.47,5.12,4.65,7.62,8.78,7.86,3.73.21,5.84-1.19,6-3.2.11-1.85-1.26-3.48-3.81-3.63S190.87,123.72,190.75,125.81Z" transform="translate(0 -0.31)"/><path class="cls-2" d="M189.28,138a4.37,4.37,0,0,0,1.35,4l-.17.26a4.65,4.65,0,0,1,3.64-8.38,4.62,4.62,0,0,1,3.83,5.53c-.51,2.8-3.21,4.27-7,3.56-4.43-.81-7.77-4.18-8.34-10.12l.62-.07c.83,5.26,3.68,8.13,7.76,8.88,3.67.68,5.94-.46,6.3-2.44.34-1.82-.82-3.6-3.33-4.07S189.66,135.89,189.28,138Z" transform="translate(0 -0.31)"/><path class="cls-2" d="M82.26,108.07c1.41,0,2.47-.58,3.64-2.1l.22.48A4.66,4.66,0,0,1,82,109c-2.85,0-4.8-2.43-4.8-5.82,0-3.76,2.19-6.13,5.1-6.13a4.6,4.6,0,0,1,3.83,2.37l-.21.44a4.65,4.65,0,0,0-3.51-1.91c-2.15,0-3.92,1.62-3.92,5.21C78.5,106.42,80.13,108.07,82.26,108.07Zm6.9,0v.63l-3.44.18-.06-2.32V99.39l0-.2V92.12L83.56,92v-.63l3-.61.33.19-.07,3.35v14.34l-.35-.87Z" transform="translate(0 -0.31)"/><path class="cls-2" d="M92.8,103.61v-1.15c0-1.54,0-2.78-.07-3.89l-2.11-.09v-.63l2.92-.76.29.19.15,3.11v3.22c0,1.49,0,4,.07,5H92.73C92.77,107.58,92.8,105.1,92.8,103.61Zm-2,4.42,2.49-.28h.33l2.59.28v.63H90.76Zm2.61-7.66h.89l-.42.24c.71-2.13,2.31-3.59,3.94-3.59a1.86,1.86,0,0,1,1.63.72c0,.74-.32,1.11-1,1.11a2,2,0,0,1-1.29-.62l-.55-.46,1.17,0c-1.71.31-2.9,1.53-3.8,3.82h-.57Z" transform="translate(0 -0.31)"/><path class="cls-2" d="M110,101.51a5.44,5.44,0,0,1-.15,1.36l-8.86,0v-.71l6.95,0c.67,0,.86-.37.86-1.06a3.21,3.21,0,0,0-3.22-3.35c-2.14,0-3.92,2-3.92,5,0,3.63,2,5.25,4.29,5.25a4.65,4.65,0,0,0,3.6-1.6l.38.33A5,5,0,0,1,105.7,109c-2.88,0-5.31-2-5.31-6,0-3.66,2.47-6,5.26-6A4.23,4.23,0,0,1,110,101.51Z" transform="translate(0 -0.31)"/><path class="cls-2" d="M116,102.48a38,38,0,0,1,3.84-1v.6a28.44,28.44,0,0,0-3.62,1c-2,.77-2.68,1.7-2.68,2.72a2,2,0,0,0,2.23,2.1c1.15,0,2-.57,3.54-2l.35-.32.14.57-.41.42C118,108.21,117,109,115.38,109a2.8,2.8,0,0,1-3.06-2.89C112.32,104.51,113.34,103.42,116,102.48Zm3.25,3.87v-5.43c0-2.54-.86-3.17-2.64-3.17a4.59,4.59,0,0,0-2.69.86l.76-.68-.51,1.81c-.14.51-.4.75-.84.75a.7.7,0,0,1-.75-.66C113.1,98,114.71,97,116.88,97c2.39,0,3.59,1.07,3.59,3.74v5.3c0,1.57.39,2,1.07,2a1.47,1.47,0,0,0,1-.46l.34.42a2.1,2.1,0,0,1-1.7.88C120,108.94,119.34,108,119.29,106.35Z" transform="translate(0 -0.31)"/></svg>